<svg version="1.1" viewBox="0.0 0.0 600.0 371.0" fill="none" stroke="none" stroke-linecap="square" stroke-miterlimit="10" width="600" height="371" xmlns:xlink="http://www.w3.org/1999/xlink" xmlns="http://www.w3.org/2000/svg"><path fill="#18191b" d="M0 0L600.0 0L600.0 371.0L0 371.0L0 0Z" fill-rule="nonzero"/><path stroke="#e5e5e5" stroke-width="1.0" stroke-linecap="butt" d="M77.5 300.5L581.5 300.5" fill-rule="nonzero"/><path stroke="#4b4c4e" stroke-width="1.0" stroke-linecap="butt" d="M77.5 268.5L581.5 268.5" fill-rule="nonzero"/><path stroke="#4b4c4e" stroke-width="1.0" stroke-linecap="butt" d="M77.5 237.5L581.5 237.5" fill-rule="nonzero"/><path stroke="#4b4c4e" stroke-width="1.0" stroke-linecap="butt" d="M77.5 206.5L581.5 206.5" fill-rule="nonzero"/><path stroke="#4b4c4e" stroke-width="1.0" stroke-linecap="butt" d="M77.5 174.5L581.5 174.5" fill-rule="nonzero"/><path stroke="#4b4c4e" stroke-width="1.0" stroke-linecap="butt" d="M77.5 143.5L581.5 143.5" fill-rule="nonzero"/><path stroke="#4b4c4e" stroke-width="1.0" stroke-linecap="butt" d="M77.5 111.5L581.5 111.5" fill-rule="nonzero"/><path stroke="#4b4c4e" stroke-width="1.0" stroke-linecap="butt" d="M77.5 80.5L581.5 80.5" fill-rule="nonzero"/><clipPath id="id_0"><path d="M77.55 80.28333L581.45 80.28333L581.45 300.45L77.55 300.45L77.55 80.28333Z" clip-rule="nonzero"/></clipPath><path fill="#ec5d5e" clip-path="url(#id_0)" d="M107.245 235.34357C107.245 237.82886 105.23028 239.84357 102.745 239.84357C100.25972 239.84357 98.245 237.82886 98.245 235.34357C98.245 232.85829 100.25972 230.84357 102.745 230.84357C105.23028 230.84357 107.245 232.85829 107.245 235.34357Z" fill-rule="nonzero"/><path fill="#ec5d5e" clip-path="url(#id_0)" d="M157.635 230.62572C157.635 233.111 155.62029 235.12572 153.135 235.12572C150.64972 235.12572 148.635 233.111 148.635 230.62572C148.635 228.14043 150.64972 226.12572 153.135 226.12572C155.62029 226.12572 157.635 228.14043 157.635 230.62572Z" fill-rule="nonzero"/><path fill="#ec5d5e" clip-path="url(#id_0)" d="M208.025 219.9319C208.025 222.41719 206.01028 224.4319 203.525 224.4319C201.03972 224.4319 199.025 222.41719 199.025 219.9319C199.025 217.44662 201.03972 215.4319 203.525 215.4319C206.01028 215.4319 208.025 217.44662 208.025 219.9319Z" fill-rule="nonzero"/><path fill="#ec5d5e" clip-path="url(#id_0)" d="M258.415 251.3843C258.415 253.86957 256.40027 255.8843 253.915 255.8843C251.42972 255.8843 249.415 253.86957 249.415 251.3843C249.415 248.899 251.42972 246.8843 253.915 246.8843C256.40027 246.8843 258.415 248.899 258.415 251.3843Z" fill-rule="nonzero"/><path fill="#ec5d5e" clip-path="url(#id_0)" d="M308.805 236.60167C308.805 239.08694 306.79028 241.10167 304.305 241.10167C301.81973 241.10167 299.805 239.08694 299.805 236.60167C299.805 234.11638 301.81973 232.10167 304.305 232.10167C306.79028 232.10167 308.805 234.11638 308.805 236.60167Z" fill-rule="nonzero"/><path fill="#ec5d5e" clip-path="url(#id_0)" d="M359.195 224.33524C359.195 226.82053 357.18027 228.83524 354.695 228.83524C352.20972 228.83524 350.195 226.82053 350.195 224.33524C350.195 221.84996 352.20972 219.83524 354.695 219.83524C357.18027 219.83524 359.195 221.84996 359.195 224.33524Z" fill-rule="nonzero"/><path fill="#ec5d5e" clip-path="url(#id_0)" d="M409.585 242.89214C409.585 245.37743 407.57028 247.39214 405.085 247.39214C402.59973 247.39214 400.585 245.37743 400.585 242.89214C400.585 240.40686 402.59973 238.39214 405.085 238.39214C407.57028 238.39214 409.585 240.40686 409.585 242.89214Z" fill-rule="nonzero"/><path fill="#ec5d5e" clip-path="url(#id_0)" d="M459.975 227.795C459.975 230.28029 457.9603 232.295 455.475 232.295C452.98972 232.295 450.975 230.28029 450.975 227.795C450.975 225.30972 452.98972 223.295 455.475 223.295C457.9603 223.295 459.975 225.30972 459.975 227.795Z" fill-rule="nonzero"/><path fill="#ec5d5e" clip-path="url(#id_0)" d="M510.365 252.01334C510.365 254.49861 508.35028 256.51334 505.865 256.51334C503.37973 256.51334 501.365 254.49861 501.365 252.01334C501.365 249.52805 503.37973 247.51334 505.865 247.51334C508.35028 247.51334 510.365 249.52805 510.365 252.01334Z" fill-rule="nonzero"/><path fill="#ec5d5e" clip-path="url(#id_0)" d="M560.755 247.92453C560.755 250.4098 558.7403 252.42453 556.255 252.42453C553.7697 252.42453 551.755 250.4098 551.755 247.92453C551.755 245.43924 553.7697 243.42453 556.255 243.42453C558.7403 243.42453 560.755 245.43924 560.755 247.92453Z" fill-rule="nonzero"/><path fill="#0090ff" clip-path="url(#id_0)" d="M107.245 124.002144C107.245 126.48743 105.23028 128.50214 102.745 128.50214C100.25972 128.50214 98.245 126.48743 98.245 124.002144C98.245 121.51686 100.25972 119.502144 102.745 119.502144C105.23028 119.502144 107.245 121.51686 107.245 124.002144Z" fill-rule="nonzero"/><path fill="#0090ff" clip-path="url(#id_0)" d="M157.635 240.37595C157.635 242.86124 155.62029 244.87595 153.135 244.87595C150.64972 244.87595 148.635 242.86124 148.635 240.37595C148.635 237.89067 150.64972 235.87595 153.135 235.87595C155.62029 235.87595 157.635 237.89067 157.635 240.37595Z" fill-rule="nonzero"/><path fill="#0090ff" clip-path="url(#id_0)" d="M208.025 229.99667C208.025 232.48195 206.01028 234.49667 203.525 234.49667C201.03972 234.49667 199.025 232.48195 199.025 229.99667C199.025 227.51138 201.03972 225.49667 203.525 225.49667C206.01028 225.49667 208.025 227.51138 208.025 229.99667Z" fill-rule="nonzero"/><path fill="#0090ff" clip-path="url(#id_0)" d="M258.415 243.5212C258.415 246.00647 256.40027 248.0212 253.915 248.0212C251.42972 248.0212 249.415 246.00647 249.415 243.5212C249.415 241.0359 251.42972 239.0212 253.915 239.0212C256.40027 239.0212 258.415 241.0359 258.415 243.5212Z" fill-rule="nonzero"/><path fill="#0090ff" clip-path="url(#id_0)" d="M308.805 231.8838C308.805 234.3691 306.79028 236.3838 304.305 236.3838C301.81973 236.3838 299.805 234.3691 299.805 231.8838C299.805 229.39853 301.81973 227.3838 304.305 227.3838C306.79028 227.3838 308.805 229.39853 308.805 231.8838Z" fill-rule="nonzero"/><path fill="#0090ff" clip-path="url(#id_0)" d="M359.195 221.81905C359.195 224.30434 357.18027 226.31905 354.695 226.31905C352.20972 226.31905 350.195 224.30434 350.195 221.81905C350.195 219.33377 352.20972 217.31905 354.695 217.31905C357.18027 217.31905 359.195 219.33377 359.195 221.81905Z" fill-rule="nonzero"/><path fill="#0090ff" clip-path="url(#id_0)" d="M409.585 230.31119C409.585 232.79648 407.57028 234.81119 405.085 234.81119C402.59973 234.81119 400.585 232.79648 400.585 230.31119C400.585 227.82591 402.59973 225.81119 405.085 225.81119C407.57028 225.81119 409.585 227.82591 409.585 230.31119Z" fill-rule="nonzero"/><path fill="#0090ff" clip-path="url(#id_0)" d="M459.975 236.91618C459.975 239.40147 457.9603 241.41618 455.475 241.41618C452.98972 241.41618 450.975 239.40147 450.975 236.91618C450.975 234.43091 452.98972 232.41618 455.475 232.41618C457.9603 232.41618 459.975 234.43091 459.975 236.91618Z" fill-rule="nonzero"/><path fill="#0090ff" clip-path="url(#id_0)" d="M510.365 233.1419C510.365 235.62718 508.35028 237.6419 505.865 237.6419C503.37973 237.6419 501.365 235.62718 501.365 233.1419C501.365 230.65662 503.37973 228.6419 505.865 228.6419C508.35028 228.6419 510.365 230.65662 510.365 233.1419Z" fill-rule="nonzero"/><path fill="#0090ff" clip-path="url(#id_0)" d="M560.755 91.920715C560.755 94.406 558.7403 96.420715 556.255 96.420715C553.7697 96.420715 551.755 94.406 551.755 91.920715C551.755 89.43543 553.7697 87.420715 556.255 87.420715C558.7403 87.420715 560.755 89.43543 560.755 91.920715Z" fill-rule="nonzero"/><path fill="#edeef0" d="M318.9375 349.45L318.9375 340.85626L322.75 340.85626Q323.90625 340.85626 324.5 341.09064Q325.09375 341.325 325.45312 341.91876Q325.8125 342.4969 325.8125 343.2Q325.8125 344.1219 325.21875 344.7469Q324.625 345.3719 323.39062 345.54376Q323.84375 345.7625 324.07812 345.96564Q324.57812 346.41876 325.01562 347.10626L326.51562 349.45L325.07812 349.45L323.95312 347.66876Q323.45312 346.8875 323.125 346.48126Q322.8125 346.075 322.54688 345.91876Q322.29688 345.7469 322.03125 345.66876Q321.84375 345.6375 321.40625 345.6375L320.07812 345.6375L320.07812 349.45L318.9375 349.45ZM320.07812 344.65314L322.53125 344.65314Q323.29688 344.65314 323.73438 344.4969Q324.1875 344.325 324.40625 343.98126Q324.64062 343.6219 324.64062 343.2Q324.64062 342.59064 324.1875 342.2Q323.75 341.8094 322.79688 341.8094L320.07812 341.8094L320.07812 344.65314ZM331.875 349.45L331.875 348.52814Q331.14062 349.59064 329.89062 349.59064Q329.34375 349.59064 328.85938 349.3875Q328.39062 349.16876 328.15625 348.85626Q327.92188 348.52814 327.82812 348.0594Q327.76562 347.7625 327.76562 347.075L327.76562 343.23126L328.82812 343.23126L328.82812 346.6844Q328.82812 347.4969 328.89062 347.79376Q328.98438 348.2 329.29688 348.45Q329.625 348.6844 330.10938 348.6844Q330.57812 348.6844 330.98438 348.45Q331.40625 348.2 331.57812 347.77814Q331.76562 347.35626 331.76562 346.5594L331.76562 343.23126L332.8125 343.23126L332.8125 349.45L331.875 349.45ZM334.79688 349.45L334.79688 343.23126L335.73438 343.23126L335.73438 344.10626Q336.42188 343.09064 337.71875 343.09064Q338.28125 343.09064 338.75 343.29376Q339.23438 343.4969 339.46875 343.825Q339.70312 344.15314 339.79688 344.59064Q339.84375 344.8875 339.84375 345.6219L339.84375 349.45L338.79688 349.45L338.79688 345.66876Q338.79688 345.0125 338.67188 344.7Q338.54688 344.3875 338.23438 344.2Q337.92188 343.9969 337.5 343.9969Q336.82812 343.9969 336.32812 344.4344Q335.84375 344.85626 335.84375 346.04376L335.84375 349.45L334.79688 349.45Z" fill-rule="nonzero"/><path fill="#ffffff" d="M29.550013 261.49167L20.956263 261.49167L20.956263 260.35104L28.534388 260.35104L28.534388 256.11667L29.550013 256.11667L29.550013 261.49167ZM26.440638 254.96042Q24.706263 254.96042 23.878138 254.0073Q23.190638 253.21042 23.190638 252.05417Q23.190638 250.77292 24.034388 249.96042Q24.862513 249.1323 26.346888 249.1323Q27.550013 249.1323 28.237513 249.49167Q28.925013 249.85104 29.315638 250.55417Q29.690638 251.24167 29.690638 252.05417Q29.690638 253.35104 28.862513 254.16354Q28.018763 254.96042 26.440638 254.96042ZM26.440638 253.8823Q27.628138 253.8823 28.221888 253.36667Q28.815638 252.83542 28.815638 252.05417Q28.815638 251.2573 28.221888 250.74167Q27.628138 250.22604 26.409388 250.22604Q25.253138 250.22604 24.659388 250.7573Q24.065638 251.27292 24.065638 252.05417Q24.065638 252.83542 24.659388 253.36667Q25.237513 253.8823 26.440638 253.8823ZM28.784388 243.5073Q29.284388 244.10104 29.487513 244.64792Q29.690638 245.17917 29.690638 245.80417Q29.690638 246.83542 29.190638 247.3823Q28.690638 247.92917 27.909388 247.92917Q27.456263 247.92917 27.081263 247.72604Q26.690638 247.52292 26.471888 247.17917Q26.237513 246.83542 26.128138 246.41354Q26.034388 246.11667 25.956263 245.47604Q25.815638 244.21042 25.596888 243.60104Q25.378138 243.60104 25.331263 243.60104Q24.675013 243.60104 24.409388 243.89792Q24.065638 244.30417 24.065638 245.10104Q24.065638 245.83542 24.331263 246.1948Q24.581263 246.55417 25.237513 246.72604L25.096888 247.7573Q24.440638 247.61667 24.034388 247.28854Q23.628138 246.96042 23.409388 246.35104Q23.190638 245.74167 23.190638 244.9448Q23.190638 244.14792 23.378138 243.64792Q23.565638 243.14792 23.846888 242.91354Q24.128138 242.67917 24.565638 242.58542Q24.831263 242.53854 25.534388 242.53854L26.940638 242.53854Q28.409388 242.53854 28.800013 242.47604Q29.190638 242.39792 29.550013 242.1948L29.550013 243.30417Q29.221888 243.46042 28.784388 243.5073ZM26.425013 243.60104Q26.659388 244.17917 26.831263 245.3198Q26.925013 245.97604 27.050013 246.24167Q27.159388 246.5073 27.378138 246.66354Q27.596888 246.80417 27.878138 246.80417Q28.300013 246.80417 28.581263 246.49167Q28.862513 246.16354 28.862513 245.55417Q28.862513 244.9448 28.596888 244.47604Q28.331263 243.99167 27.862513 243.77292Q27.503138 243.60104 26.815638 243.60104L26.425013 243.60104ZM29.550013 236.53854L28.768763 236.53854Q29.690638 237.1323 29.690638 238.27292Q29.690638 239.02292 29.284388 239.64792Q28.862513 240.27292 28.128138 240.61667Q27.393763 240.96042 26.440638 240.96042Q25.518763 240.96042 24.753138 240.64792Q23.987513 240.33542 23.596888 239.71042Q23.190638 239.08542 23.190638 238.3198Q23.190638 237.7573 23.425013 237.3198Q23.659388 236.8823 24.034388 236.60104L20.956263 236.60104L20.956263 235.55417L29.550013 235.55417L29.550013 236.53854ZM26.440638 239.86667Q27.643763 239.86667 28.237513 239.36667Q28.815638 238.86667 28.815638 238.17917Q28.815638 237.49167 28.253138 237.0073Q27.690638 236.52292 26.534388 236.52292Q25.253138 236.52292 24.659388 237.02292Q24.065638 237.5073 24.065638 238.22604Q24.065638 238.92917 24.643763 239.39792Q25.206263 239.86667 26.440638 239.86667ZM22.175013 233.5698L20.956263 233.5698L20.956263 232.5073L22.175013 232.5073L22.175013 233.5698ZM29.550013 233.5698L23.331263 233.5698L23.331263 232.5073L29.550013 232.5073L29.550013 233.5698ZM29.550013 230.5698L23.331263 230.5698L23.331263 229.6323L24.206263 229.6323Q23.190638 228.9448 23.190638 227.64792Q23.190638 227.08542 23.393763 226.61667Q23.596888 226.1323 23.925013 225.89792Q24.253138 225.66354 24.690638 225.5698Q24.987513 225.52292 25.721888 225.52292L29.550013 225.52292L29.550013 226.5698L25.768763 226.5698Q25.112513 226.5698 24.800013 226.6948Q24.487513 226.8198 24.300013 227.1323Q24.096888 227.4448 24.096888 227.86667Q24.096888 228.53854 24.534388 229.03854Q24.956263 229.52292 26.143763 229.52292L29.550013 229.52292L29.550013 230.5698ZM30.065638 223.77292L30.221888 222.74167Q30.690638 222.67917 30.909388 222.3823Q31.206263 221.99167 31.206263 221.3198Q31.206263 220.58542 30.909388 220.1948Q30.612513 219.78854 30.096888 219.64792Q29.768763 219.55417 28.737513 219.5698Q29.550013 220.2573 29.550013 221.28854Q29.550013 222.5698 28.628138 223.27292Q27.690638 223.97604 26.409388 223.97604Q25.518763 223.97604 24.768763 223.66354Q24.003138 223.33542 23.596888 222.72604Q23.190638 222.11667 23.190638 221.28854Q23.190638 220.17917 24.081263 219.46042L23.331263 219.46042L23.331263 218.49167L28.706263 218.49167Q30.159388 218.49167 30.768763 218.78854Q31.378138 219.08542 31.721888 219.72604Q32.08126 220.36667 32.08126 221.30417Q32.08126 222.41354 31.581263 223.10104Q31.081263 223.78854 30.065638 223.77292ZM26.331263 222.89792Q27.550013 222.89792 28.112513 222.41354Q28.675013 221.92917 28.675013 221.1948Q28.675013 220.46042 28.112513 219.97604Q27.550013 219.47604 26.362513 219.47604Q25.221888 219.47604 24.643763 219.99167Q24.065638 220.49167 24.065638 221.21042Q24.065638 221.91354 24.643763 222.41354Q25.206263 222.89792 26.331263 222.89792ZM28.612513 211.27292L29.534388 211.11667Q29.628138 211.5698 29.628138 211.91354Q29.628138 212.49167 29.456263 212.80417Q29.268763 213.11667 28.971888 213.2573Q28.675013 213.3823 27.721888 213.3823L24.143763 213.3823L24.143763 214.14792L23.331263 214.14792L23.331263 213.3823L21.784388 213.3823L21.159388 212.33542L23.331263 212.33542L23.331263 211.27292L24.143763 211.27292L24.143763 212.33542L27.784388 212.33542Q28.237513 212.33542 28.362513 212.28854Q28.487513 212.22604 28.565638 212.10104Q28.643763 211.97604 28.643763 211.74167Q28.643763 211.55417 28.612513 211.27292ZM22.175013 210.5698L20.956263 210.5698L20.956263 209.5073L22.175013 209.5073L22.175013 210.5698ZM29.550013 210.5698L23.331263 210.5698L23.331263 209.5073L29.550013 209.5073L29.550013 210.5698ZM29.550013 207.5698L23.331263 207.5698L23.331263 206.6323L24.206263 206.6323Q23.737513 206.33542 23.471888 205.85104Q23.190638 205.36667 23.190638 204.74167Q23.190638 204.05417 23.471888 203.61667Q23.753138 203.16354 24.268763 202.99167Q23.190638 202.24167 23.190638 201.0698Q23.190638 200.1323 23.706263 199.64792Q24.206263 199.14792 25.284388 199.14792L29.550013 199.14792L29.550013 200.1948L25.628138 200.1948Q25.003138 200.1948 24.721888 200.30417Q24.440638 200.39792 24.268763 200.66354Q24.096888 200.92917 24.096888 201.30417Q24.096888 201.96042 24.534388 202.39792Q24.971888 202.8198 25.940638 202.8198L29.550013 202.8198L29.550013 203.8823L25.503138 203.8823Q24.800013 203.8823 24.456263 204.14792Q24.096888 204.39792 24.096888 204.97604Q24.096888 205.42917 24.331263 205.80417Q24.565638 206.17917 25.018763 206.35104Q25.471888 206.52292 26.315638 206.52292L29.550013 206.52292L29.550013 207.5698ZM27.550013 192.3198L27.675013 191.22604Q28.628138 191.47604 29.159388 192.17917Q29.690638 192.8823 29.690638 193.96042Q29.690638 195.3198 28.846888 196.1323Q28.003138 196.92917 26.487513 196.92917Q24.925013 196.92917 24.065638 196.11667Q23.190638 195.30417 23.190638 194.02292Q23.190638 192.77292 24.034388 191.99167Q24.878138 191.1948 26.425013 191.1948Q26.518763 191.1948 26.706263 191.1948L26.706263 195.83542Q27.737513 195.77292 28.284388 195.2573Q28.815638 194.74167 28.815638 193.96042Q28.815638 193.3823 28.518763 192.97604Q28.206263 192.55417 27.550013 192.3198ZM25.846888 195.77292L25.846888 192.30417Q25.050013 192.36667 24.659388 192.6948Q24.050013 193.21042 24.050013 194.0073Q24.050013 194.74167 24.534388 195.24167Q25.018763 195.72604 25.846888 195.77292ZM32.08126 184.55417Q30.971888 185.42917 29.503138 186.03854Q28.018763 186.6323 26.440638 186.6323Q25.050013 186.6323 23.768763 186.1948Q22.284388 185.66354 20.815638 184.55417L20.815638 183.80417Q22.034388 184.5073 22.550013 184.74167Q23.362513 185.10104 24.237513 185.30417Q25.331263 185.55417 26.440638 185.55417Q29.268763 185.55417 32.08126 183.80417L32.08126 184.55417ZM27.690638 182.99167L27.534388 181.96042Q28.159388 181.86667 28.487513 181.47604Q28.815638 181.0698 28.815638 180.33542Q28.815638 179.61667 28.534388 179.27292Q28.237513 178.91354 27.831263 178.91354Q27.471888 178.91354 27.268763 179.22604Q27.128138 179.4448 26.909388 180.30417Q26.612513 181.46042 26.409388 181.91354Q26.190638 182.35104 25.815638 182.58542Q25.440638 182.8198 24.971888 182.8198Q24.565638 182.8198 24.206263 182.6323Q23.846888 182.4448 23.612513 182.11667Q23.440638 181.86667 23.315638 181.4448Q23.190638 181.02292 23.190638 180.52292Q23.190638 179.80417 23.409388 179.2573Q23.612513 178.6948 23.971888 178.42917Q24.331263 178.16354 24.925013 178.0698L25.065638 179.10104Q24.596888 179.16354 24.331263 179.5073Q24.050013 179.83542 24.050013 180.46042Q24.050013 181.17917 24.300013 181.49167Q24.534388 181.80417 24.862513 181.80417Q25.065638 181.80417 25.221888 181.67917Q25.393763 181.53854 25.503138 181.27292Q25.565638 181.11667 25.768763 180.33542Q26.081263 179.21042 26.268763 178.77292Q26.456263 178.33542 26.815638 178.08542Q27.175013 177.83542 27.721888 177.83542Q28.253138 177.83542 28.721888 178.14792Q29.175013 178.4448 29.440638 179.02292Q29.690638 179.60104 29.690638 180.33542Q29.690638 181.55417 29.190638 182.1948Q28.675013 182.8198 27.690638 182.99167ZM27.550013 171.3198L27.675013 170.22604Q28.628138 170.47604 29.159388 171.17917Q29.690638 171.8823 29.690638 172.96042Q29.690638 174.3198 28.846888 175.1323Q28.003138 175.92917 26.487513 175.92917Q24.925013 175.92917 24.065638 175.11667Q23.190638 174.30417 23.190638 173.02292Q23.190638 171.77292 24.034388 170.99167Q24.878138 170.1948 26.425013 170.1948Q26.518763 170.1948 26.706263 170.1948L26.706263 174.83542Q27.737513 174.77292 28.284388 174.2573Q28.815638 173.74167 28.815638 172.96042Q28.815638 172.3823 28.518763 171.97604Q28.206263 171.55417 27.550013 171.3198ZM25.846888 174.77292L25.846888 171.30417Q25.050013 171.36667 24.659388 171.6948Q24.050013 172.21042 24.050013 173.0073Q24.050013 173.74167 24.534388 174.24167Q25.018763 174.72604 25.846888 174.77292ZM27.268763 164.5073L27.409388 163.47604Q28.471888 163.64792 29.081263 164.35104Q29.690638 165.05417 29.690638 166.0698Q29.690638 167.35104 28.862513 168.1323Q28.018763 168.89792 26.456263 168.89792Q25.456263 168.89792 24.706263 168.5698Q23.940638 168.22604 23.565638 167.55417Q23.190638 166.86667 23.190638 166.05417Q23.190638 165.05417 23.706263 164.41354Q24.206263 163.7573 25.159388 163.5698L25.315638 164.60104Q24.690638 164.74167 24.378138 165.11667Q24.050013 165.49167 24.050013 166.02292Q24.050013 166.8198 24.628138 167.3198Q25.190638 167.8198 26.425013 167.8198Q27.690638 167.8198 28.253138 167.33542Q28.815638 166.85104 28.815638 166.08542Q28.815638 165.46042 28.440638 165.05417Q28.065638 164.6323 27.268763 164.5073ZM26.440638 162.96042Q24.706263 162.96042 23.878138 162.0073Q23.190638 161.21042 23.190638 160.05417Q23.190638 158.77292 24.034388 157.96042Q24.862513 157.1323 26.346888 157.1323Q27.550013 157.1323 28.237513 157.49167Q28.925013 157.85104 29.315638 158.55417Q29.690638 159.24167 29.690638 160.05417Q29.690638 161.35104 28.862513 162.16354Q28.018763 162.96042 26.440638 162.96042ZM26.440638 161.8823Q27.628138 161.8823 28.221888 161.36667Q28.815638 160.83542 28.815638 160.05417Q28.815638 159.2573 28.221888 158.74167Q27.628138 158.22604 26.409388 158.22604Q25.253138 158.22604 24.659388 158.7573Q24.065638 159.27292 24.065638 160.05417Q24.065638 160.83542 24.659388 161.36667Q25.237513 161.8823 26.440638 161.8823ZM29.550013 155.5698L23.331263 155.5698L23.331263 154.6323L24.206263 154.6323Q23.190638 153.9448 23.190638 152.64792Q23.190638 152.08542 23.393763 151.61667Q23.596888 151.1323 23.925013 150.89792Q24.253138 150.66354 24.690638 150.5698Q24.987513 150.52292 25.721888 150.52292L29.550013 150.52292L29.550013 151.5698L25.768763 151.5698Q25.112513 151.5698 24.800013 151.6948Q24.487513 151.8198 24.300013 152.1323Q24.096888 152.4448 24.096888 152.86667Q24.096888 153.53854 24.534388 154.03854Q24.956263 154.52292 26.143763 154.52292L29.550013 154.52292L29.550013 155.5698ZM29.550013 144.53854L28.768763 144.53854Q29.690638 145.1323 29.690638 146.27292Q29.690638 147.02292 29.284388 147.64792Q28.862513 148.27292 28.128138 148.61667Q27.393763 148.96042 26.440638 148.96042Q25.518763 148.96042 24.753138 148.64792Q23.987513 148.33542 23.596888 147.71042Q23.190638 147.08542 23.190638 146.3198Q23.190638 145.7573 23.425013 145.3198Q23.659388 144.8823 24.034388 144.60104L20.956263 144.60104L20.956263 143.55417L29.550013 143.55417L29.550013 144.53854ZM26.440638 147.86667Q27.643763 147.86667 28.237513 147.36667Q28.815638 146.86667 28.815638 146.17917Q28.815638 145.49167 28.253138 145.0073Q27.690638 144.52292 26.534388 144.52292Q25.253138 144.52292 24.659388 145.02292Q24.065638 145.5073 24.065638 146.22604Q24.065638 146.92917 24.643763 147.39792Q25.206263 147.86667 26.440638 147.86667ZM27.690638 141.99167L27.534388 140.96042Q28.159388 140.86667 28.487513 140.47604Q28.815638 140.0698 28.815638 139.33542Q28.815638 138.61667 28.534388 138.27292Q28.237513 137.91354 27.831263 137.91354Q27.471888 137.91354 27.268763 138.22604Q27.128138 138.4448 26.909388 139.30417Q26.612513 140.46042 26.409388 140.91354Q26.190638 141.35104 25.815638 141.58542Q25.440638 141.8198 24.971888 141.8198Q24.565638 141.8198 24.206263 141.6323Q23.846888 141.4448 23.612513 141.11667Q23.440638 140.86667 23.315638 140.4448Q23.190638 140.02292 23.190638 139.52292Q23.190638 138.80417 23.409388 138.2573Q23.612513 137.6948 23.971888 137.42917Q24.331263 137.16354 24.925013 137.0698L25.065638 138.10104Q24.596888 138.16354 24.331263 138.5073Q24.050013 138.83542 24.050013 139.46042Q24.050013 140.17917 24.300013 140.49167Q24.534388 140.80417 24.862513 140.80417Q25.065638 140.80417 25.221888 140.67917Q25.393763 140.53854 25.503138 140.27292Q25.565638 140.11667 25.768763 139.33542Q26.081263 138.21042 26.268763 137.77292Q26.456263 137.33542 26.815638 137.08542Q27.175013 136.83542 27.721888 136.83542Q28.253138 136.83542 28.721888 137.14792Q29.175013 137.4448 29.440638 138.02292Q29.690638 138.60104 29.690638 139.33542Q29.690638 140.55417 29.190638 141.1948Q28.675013 141.8198 27.690638 141.99167ZM32.08126 133.8823L32.08126 134.6323Q29.268763 132.8823 26.440638 132.8823Q25.346888 132.8823 24.253138 133.1323Q23.378138 133.33542 22.565638 133.6948Q22.050013 133.92917 20.815638 134.6323L20.815638 133.8823Q22.284388 132.78854 23.768763 132.2573Q25.050013 131.80417 26.440638 131.80417Q28.018763 131.80417 29.503138 132.41354Q30.971888 133.02292 32.08126 133.8823Z" fill-rule="nonzero"/><path fill="#edeef0" d="M65.05 300.21564Q65.05 298.6844 65.3625 297.7625Q65.675 296.825 66.28438 296.325Q66.90938 295.825 67.84688 295.825Q68.53438 295.825 69.05 296.10626Q69.58125 296.3875 69.925 296.91876Q70.26875 297.4344 70.45625 298.1844Q70.64375 298.9344 70.64375 300.21564Q70.64375 301.73126 70.33125 302.65314Q70.03438 303.575 69.40938 304.09064Q68.8 304.59064 67.84688 304.59064Q66.6125 304.59064 65.89375 303.7Q65.05 302.6375 65.05 300.21564ZM66.12813 300.21564Q66.12813 302.325 66.62813 303.02814Q67.12813 303.73126 67.84688 303.73126Q68.58125 303.73126 69.06563 303.02814Q69.56563 302.325 69.56563 300.21564Q69.56563 298.09064 69.06563 297.40314Q68.58125 296.7 67.83125 296.7Q67.1125 296.7 66.675 297.3094Q66.12813 298.09064 66.12813 300.21564Z" fill-rule="nonzero"/><path fill="#edeef0" d="M69.01875 272.99762L67.97188 272.99762L67.97188 266.27887Q67.58125 266.63824 66.95625 267.01324Q66.34688 267.37262 65.8625 267.5445L65.8625 266.52887Q66.7375 266.107 67.39375 265.52887Q68.06563 264.93512 68.34688 264.37262L69.01875 264.37262L69.01875 272.99762Z" fill-rule="nonzero"/><path fill="#edeef0" d="M70.59688 240.52962L70.59688 241.54524L64.90938 241.54524Q64.90938 241.17024 65.03438 240.81087Q65.25313 240.23274 65.72188 239.67024Q66.20625 239.10774 67.1125 238.37337Q68.51875 237.21712 69.00313 236.54524Q69.50313 235.87337 69.50313 235.27962Q69.50313 234.65462 69.05 234.23274Q68.59688 233.79524 67.87813 233.79524Q67.1125 233.79524 66.65938 234.24837Q66.20625 234.70149 66.19063 235.51399L65.1125 235.40462Q65.22188 234.18587 65.94063 233.56087Q66.675 232.92024 67.90938 232.92024Q69.14375 232.92024 69.8625 233.60774Q70.58125 234.29524 70.58125 235.31087Q70.58125 235.82649 70.3625 236.32649Q70.15938 236.81087 69.65938 237.37337Q69.175 237.92024 68.05 238.87337Q67.09688 239.67024 66.81563 239.96712Q66.55 240.24837 66.37813 240.52962L70.59688 240.52962Z" fill-rule="nonzero"/><path fill="#edeef0" d="M65.05 207.82722L66.1125 207.6866Q66.28438 208.57722 66.72188 208.98347Q67.15938 209.3741 67.78438 209.3741Q68.53438 209.3741 69.05 208.85847Q69.56563 208.34285 69.56563 207.57722Q69.56563 206.85847 69.08125 206.38972Q68.6125 205.90535 67.87813 205.90535Q67.58125 205.90535 67.12813 206.03035L67.25313 205.09285Q67.3625 205.10847 67.425 205.10847Q68.09688 205.10847 68.62813 204.76472Q69.175 204.40535 69.175 203.67097Q69.175 203.09285 68.78438 202.71785Q68.39375 202.32722 67.76875 202.32722Q67.15938 202.32722 66.7375 202.71785Q66.33125 203.10847 66.22188 203.8741L65.15938 203.6866Q65.34688 202.63972 66.03438 202.0616Q66.72188 201.46785 67.7375 201.46785Q68.44063 201.46785 69.03438 201.78035Q69.62813 202.07722 69.94063 202.59285Q70.25313 203.10847 70.25313 203.70222Q70.25313 204.2491 69.95625 204.71785Q69.65938 205.17097 69.08125 205.4366Q69.83125 205.60847 70.25313 206.17097Q70.675 206.71785 70.675 207.5616Q70.675 208.6866 69.84688 209.46785Q69.03438 210.2491 67.78438 210.2491Q66.65938 210.2491 65.90938 209.57722Q65.15938 208.88972 65.05 207.82722Z" fill-rule="nonzero"/><path fill="#edeef0" d="M68.425 178.64047L68.425 176.57797L64.70625 176.57797L64.70625 175.60922L68.62813 170.04672L69.4875 170.04672L69.4875 175.60922L70.64375 175.60922L70.64375 176.57797L69.4875 176.57797L69.4875 178.64047L68.425 178.64047ZM68.425 175.60922L68.425 171.74985L65.7375 175.60922L68.425 175.60922Z" fill-rule="nonzero"/><path fill="#edeef0" d="M65.05 144.9381L66.15938 144.84435Q66.28438 145.65685 66.72188 146.0631Q67.175 146.46935 67.81563 146.46935Q68.56563 146.46935 69.09688 145.89122Q69.62813 145.3131 69.62813 144.3756Q69.62813 143.46935 69.1125 142.95372Q68.6125 142.42247 67.78438 142.42247Q67.28438 142.42247 66.8625 142.65685Q66.45625 142.89122 66.22188 143.2506L65.2375 143.1256L66.06563 138.71935L70.34688 138.71935L70.34688 139.71935L66.90938 139.71935L66.45625 142.03185Q67.22188 141.48497 68.06563 141.48497Q69.19063 141.48497 69.95625 142.26622Q70.7375 143.04747 70.7375 144.28185Q70.7375 145.4381 70.06563 146.29747Q69.2375 147.32872 67.81563 147.32872Q66.64375 147.32872 65.89375 146.67247Q65.15938 146.01622 65.05 144.9381Z" fill-rule="nonzero"/><path fill="#edeef0" d="M70.51875 109.25134L69.47188 109.32947Q69.33125 108.70447 69.08125 108.42322Q68.64375 107.97009 68.01875 107.97009Q67.51875 107.97009 67.12813 108.25134Q66.64375 108.62634 66.34688 109.32947Q66.06563 110.01697 66.05 111.29822Q66.425 110.72009 66.97188 110.43884Q67.53438 110.15759 68.14375 110.15759Q69.19063 110.15759 69.925 110.93884Q70.675 111.72009 70.675 112.93884Q70.675 113.75134 70.31563 114.45447Q69.97188 115.14197 69.3625 115.51697Q68.75313 115.87634 67.9875 115.87634Q66.65938 115.87634 65.83125 114.90759Q65.00313 113.93884 65.00313 111.72009Q65.00313 109.22009 65.925 108.09509Q66.72188 107.11072 68.08125 107.11072Q69.09688 107.11072 69.7375 107.68884Q70.39375 108.25134 70.51875 109.25134ZM66.22188 112.95447Q66.22188 113.50134 66.44063 114.00134Q66.675 114.48572 67.08125 114.75134Q67.50313 115.01697 67.97188 115.01697Q68.62813 115.01697 69.1125 114.48572Q69.59688 113.93884 69.59688 113.01697Q69.59688 112.12634 69.1125 111.61072Q68.64375 111.09509 67.925 111.09509Q67.20625 111.09509 66.70625 111.61072Q66.22188 112.12634 66.22188 112.95447Z" fill-rule="nonzero"/><path fill="#edeef0" d="M65.1125 76.81458L65.1125 75.79896L70.675 75.79896L70.675 76.62708Q69.8625 77.50208 69.05 78.95521Q68.25313 80.39271 67.81563 81.92396Q67.4875 83.00208 67.40938 84.28333L66.31563 84.28333Q66.33125 83.26771 66.70625 81.83021Q67.09688 80.39271 67.8 79.06458Q68.51875 77.73646 69.33125 76.81458L65.1125 76.81458Z" fill-rule="nonzero"/><path fill="#edeef0" d="M103.71375 317.45L102.66688 317.45L102.66688 310.73126Q102.27625 311.09064 101.65125 311.46564Q101.04188 311.825 100.5575 311.9969L100.5575 310.98126Q101.4325 310.5594 102.08875 309.98126Q102.76063 309.3875 103.04188 308.825L103.71375 308.825L103.71375 317.45Z" fill-rule="nonzero"/><path fill="#edeef0" d="M155.68187 316.4344L155.68187 317.45L149.99437 317.45Q149.99437 317.075 150.11937 316.71564Q150.33812 316.1375 150.80687 315.575Q151.29124 315.0125 152.1975 314.27814Q153.60374 313.1219 154.08812 312.45Q154.58812 311.77814 154.58812 311.1844Q154.58812 310.5594 154.135 310.1375Q153.68187 309.7 152.96312 309.7Q152.1975 309.7 151.74437 310.15314Q151.29124 310.60626 151.27562 311.41876L150.1975 311.3094Q150.30687 310.09064 151.02562 309.46564Q151.76 308.825 152.99437 308.825Q154.22874 308.825 154.9475 309.5125Q155.66624 310.2 155.66624 311.21564Q155.66624 311.73126 155.4475 312.23126Q155.24437 312.71564 154.74437 313.27814Q154.26 313.825 153.135 314.77814Q152.18187 315.575 151.90062 315.8719Q151.635 316.15314 151.46312 316.4344L155.68187 316.4344Z" fill-rule="nonzero"/><path fill="#edeef0" d="M200.525 315.1844L201.5875 315.04376Q201.75937 315.9344 202.19687 316.34064Q202.63437 316.73126 203.25937 316.73126Q204.00937 316.73126 204.525 316.21564Q205.04062 315.7 205.04062 314.9344Q205.04062 314.21564 204.55624 313.7469Q204.0875 313.2625 203.35312 313.2625Q203.05624 313.2625 202.60312 313.3875L202.72812 312.45Q202.8375 312.46564 202.9 312.46564Q203.57187 312.46564 204.10312 312.1219Q204.65 311.7625 204.65 311.02814Q204.65 310.45 204.25937 310.075Q203.86874 309.6844 203.24374 309.6844Q202.63437 309.6844 202.2125 310.075Q201.80624 310.46564 201.69687 311.23126L200.63437 311.04376Q200.82187 309.9969 201.50937 309.41876Q202.19687 308.825 203.2125 308.825Q203.91562 308.825 204.50937 309.1375Q205.10312 309.4344 205.41562 309.95Q205.72812 310.46564 205.72812 311.0594Q205.72812 311.60626 205.43124 312.075Q205.13437 312.52814 204.55624 312.79376Q205.30624 312.96564 205.72812 313.52814Q206.15 314.075 206.15 314.91876Q206.15 316.04376 205.32187 316.825Q204.50937 317.60626 203.25937 317.60626Q202.13437 317.60626 201.38437 316.9344Q200.63437 316.2469 200.525 315.1844Z" fill-rule="nonzero"/><path fill="#edeef0" d="M254.29 317.45L254.29 315.3875L250.57124 315.3875L250.57124 314.41876L254.49312 308.85626L255.3525 308.85626L255.3525 314.41876L256.50873 314.41876L256.50873 315.3875L255.3525 315.3875L255.3525 317.45L254.29 317.45ZM254.29 314.41876L254.29 310.5594L251.6025 314.41876L254.29 314.41876Z" fill-rule="nonzero"/><path fill="#edeef0" d="M301.305 315.2L302.41437 315.10626Q302.53937 315.91876 302.97687 316.325Q303.43 316.73126 304.07062 316.73126Q304.82062 316.73126 305.35187 316.15314Q305.88312 315.575 305.88312 314.6375Q305.88312 313.73126 305.3675 313.21564Q304.8675 312.6844 304.03937 312.6844Q303.53937 312.6844 303.1175 312.91876Q302.71124 313.15314 302.47687 313.5125L301.4925 313.3875L302.32062 308.98126L306.60187 308.98126L306.60187 309.98126L303.16437 309.98126L302.71124 312.29376Q303.47687 311.7469 304.32062 311.7469Q305.44562 311.7469 306.21124 312.52814Q306.9925 313.3094 306.9925 314.54376Q306.9925 315.7 306.32062 316.5594Q305.4925 317.59064 304.07062 317.59064Q302.89874 317.59064 302.14874 316.9344Q301.41437 316.27814 301.305 315.2Z" fill-rule="nonzero"/><path fill="#edeef0" d="M357.16376 310.96564L356.11688 311.04376Q355.97626 310.41876 355.72626 310.1375Q355.28876 309.6844 354.66376 309.6844Q354.16376 309.6844 353.77313 309.96564Q353.28876 310.34064 352.99188 311.04376Q352.71063 311.73126 352.695 313.0125Q353.07 312.4344 353.61688 312.15314Q354.17938 311.8719 354.78876 311.8719Q355.83563 311.8719 356.57 312.65314Q357.32 313.4344 357.32 314.65314Q357.32 315.46564 356.96063 316.16876Q356.61688 316.85626 356.0075 317.23126Q355.39813 317.59064 354.6325 317.59064Q353.30438 317.59064 352.47626 316.6219Q351.64813 315.65314 351.64813 313.4344Q351.64813 310.9344 352.57 309.8094Q353.36688 308.825 354.72626 308.825Q355.74188 308.825 356.3825 309.40314Q357.03876 309.96564 357.16376 310.96564ZM352.86688 314.66876Q352.86688 315.21564 353.08563 315.71564Q353.32 316.2 353.72626 316.46564Q354.14813 316.73126 354.61688 316.73126Q355.27313 316.73126 355.7575 316.2Q356.24188 315.65314 356.24188 314.73126Q356.24188 313.84064 355.7575 313.325Q355.28876 312.8094 354.57 312.8094Q353.85126 312.8094 353.35126 313.325Q352.86688 313.84064 352.86688 314.66876Z" fill-rule="nonzero"/><path fill="#edeef0" d="M402.1475 309.98126L402.1475 308.96564L407.71 308.96564L407.71 309.79376Q406.8975 310.66876 406.085 312.1219Q405.28812 313.5594 404.85062 315.09064Q404.5225 316.16876 404.44437 317.45L403.35062 317.45Q403.36624 316.4344 403.74124 314.9969Q404.13187 313.5594 404.835 312.23126Q405.55374 310.90314 406.36624 309.98126L402.1475 309.98126Z" fill-rule="nonzero"/><path fill="#edeef0" d="M454.1 312.79376Q453.44376 312.54376 453.11563 312.10626Q452.80313 311.65314 452.80313 311.04376Q452.80313 310.10626 453.475 309.46564Q454.1625 308.825 455.27188 308.825Q456.39688 308.825 457.08438 309.48126Q457.77188 310.1375 457.77188 311.075Q457.77188 311.66876 457.45938 312.10626Q457.14688 312.54376 456.50626 312.79376Q457.30313 313.04376 457.70938 313.6219Q458.11563 314.2 458.11563 314.9969Q458.11563 316.09064 457.33438 316.84064Q456.56876 317.59064 455.2875 317.59064Q454.02188 317.59064 453.24063 316.84064Q452.45938 316.09064 452.45938 314.96564Q452.45938 314.1219 452.88126 313.5594Q453.31876 312.9969 454.1 312.79376ZM453.88126 310.9969Q453.88126 311.60626 454.27188 311.9969Q454.67813 312.3875 455.30313 312.3875Q455.9125 312.3875 456.30313 312.0125Q456.69376 311.6219 456.69376 311.0594Q456.69376 310.48126 456.2875 310.09064Q455.88126 309.6844 455.2875 309.6844Q454.67813 309.6844 454.27188 310.075Q453.88126 310.46564 453.88126 310.9969ZM453.55313 314.96564Q453.55313 315.41876 453.75626 315.84064Q453.975 316.2625 454.39688 316.4969Q454.81876 316.73126 455.30313 316.73126Q456.05313 316.73126 456.5375 316.2469Q457.0375 315.7625 457.0375 315.0125Q457.0375 314.2469 456.5375 313.7469Q456.0375 313.2469 455.27188 313.2469Q454.52188 313.2469 454.0375 313.7469Q453.55313 314.23126 453.55313 314.96564Z" fill-rule="nonzero"/><path fill="#edeef0" d="M503.02124 315.46564L504.03687 315.3719Q504.16187 316.09064 504.52124 316.41876Q504.89624 316.73126 505.45874 316.73126Q505.9431 316.73126 506.3025 316.5125Q506.6775 316.27814 506.91187 315.91876Q507.14624 315.54376 507.3025 314.91876Q507.45874 314.27814 507.45874 313.6219Q507.45874 313.54376 507.45874 313.40314Q507.14624 313.90314 506.59937 314.23126Q506.0525 314.54376 505.41187 314.54376Q504.33374 314.54376 503.59937 313.77814Q502.865 312.9969 502.865 311.73126Q502.865 310.41876 503.6306 309.6219Q504.41187 308.825 505.5681 308.825Q506.39624 308.825 507.08374 309.27814Q507.78687 309.73126 508.14624 310.575Q508.5056 311.40314 508.5056 312.98126Q508.5056 314.6219 508.14624 315.60626Q507.8025 316.575 507.08374 317.09064Q506.3806 317.59064 505.4431 317.59064Q504.4275 317.59064 503.78687 317.04376Q503.14624 316.48126 503.02124 315.46564ZM507.33374 311.66876Q507.33374 310.7625 506.84937 310.23126Q506.3806 309.7 505.6931 309.7Q504.99 309.7 504.45874 310.27814Q503.9431 310.84064 503.9431 311.7625Q503.9431 312.575 504.4431 313.09064Q504.9431 313.60626 505.66187 313.60626Q506.39624 313.60626 506.865 313.09064Q507.33374 312.575 507.33374 311.66876Z" fill-rule="nonzero"/><path fill="#edeef0" d="M553.72375 317.45L552.6769 317.45L552.6769 310.73126Q552.28625 311.09064 551.66125 311.46564Q551.0519 311.825 550.5675 311.9969L550.5675 310.98126Q551.4425 310.5594 552.09875 309.98126Q552.7706 309.3875 553.0519 308.825L553.72375 308.825L553.72375 317.45ZM556.755 313.21564Q556.755 311.6844 557.0675 310.7625Q557.38 309.825 557.9894 309.325Q558.6144 308.825 559.5519 308.825Q560.2394 308.825 560.755 309.10626Q561.28625 309.3875 561.63 309.91876Q561.97375 310.4344 562.16125 311.1844Q562.34875 311.9344 562.34875 313.21564Q562.34875 314.73126 562.03625 315.65314Q561.7394 316.575 561.1144 317.09064Q560.505 317.59064 559.5519 317.59064Q558.3175 317.59064 557.59875 316.7Q556.755 315.6375 556.755 313.21564ZM557.8331 313.21564Q557.8331 315.325 558.3331 316.02814Q558.8331 316.73126 559.5519 316.73126Q560.28625 316.73126 560.7706 316.02814Q561.2706 315.325 561.2706 313.21564Q561.2706 311.09064 560.7706 310.40314Q560.28625 309.7 559.53625 309.7Q558.8175 309.7 558.38 310.3094Q557.8331 311.09064 557.8331 313.21564Z" fill-rule="nonzero"/><path fill="#ec5d5e" d="M255.5 53.916668C255.5 57.230373 252.8137 59.916668 249.5 59.916668C246.1863 59.916668 243.5 57.230373 243.5 53.916668C243.5 50.60296 246.1863 47.916668 249.5 47.916668C252.8137 47.916668 255.5 50.60296 255.5 53.916668Z" fill-rule="nonzero"/><path fill="#edeef0" d="M266.875 57.916668L263.54688 49.322918L264.78125 49.322918L267.01562 55.572918Q267.28125 56.322918 267.46875 56.979168Q267.67188 56.276043 267.9375 55.572918L270.25 49.322918L271.40625 49.322918L268.04688 57.916668L266.875 57.916668ZM271.29688 50.541668L271.29688 49.322918L272.35938 49.322918L272.35938 50.541668L271.29688 50.541668ZM271.29688 57.916668L271.29688 51.697918L272.35938 51.697918L272.35938 57.916668L271.29688 57.916668ZM276.59375 56.979168L276.75 57.901043Q276.29688 57.994793 275.95312 57.994793Q275.375 57.994793 275.0625 57.822918Q274.75 57.635418 274.60938 57.338543Q274.48438 57.041668 274.48438 56.088543L274.48438 52.510418L273.71875 52.510418L273.71875 51.697918L274.48438 51.697918L274.48438 50.151043L275.53125 49.526043L275.53125 51.697918L276.59375 51.697918L276.59375 52.510418L275.53125 52.510418L275.53125 56.151043Q275.53125 56.604168 275.57812 56.729168Q275.64062 56.854168 275.76562 56.932293Q275.89062 57.010418 276.125 57.010418Q276.3125 57.010418 276.59375 56.979168ZM281.54688 55.916668L282.64062 56.041668Q282.39062 56.994793 281.6875 57.526043Q280.98438 58.057293 279.90625 58.057293Q278.54688 58.057293 277.73438 57.213543Q276.9375 56.369793 276.9375 54.854168Q276.9375 53.291668 277.75 52.432293Q278.5625 51.557293 279.84375 51.557293Q281.09375 51.557293 281.875 52.401043Q282.67188 53.244793 282.67188 54.791668Q282.67188 54.885418 282.67188 55.072918L278.03125 55.072918Q278.09375 56.104168 278.60938 56.651043Q279.125 57.182293 279.90625 57.182293Q280.48438 57.182293 280.89062 56.885418Q281.3125 56.572918 281.54688 55.916668ZM278.09375 54.213543L281.5625 54.213543Q281.5 53.416668 281.17188 53.026043Q280.65625 52.416668 279.85938 52.416668Q279.125 52.416668 278.625 52.901043Q278.14062 53.385418 278.09375 54.213543Z" fill-rule="nonzero"/><path fill="#0090ff" d="M311.5 53.916668C311.5 57.230373 308.81372 59.916668 305.5 59.916668C302.18628 59.916668 299.5 57.230373 299.5 53.916668C299.5 50.60296 302.18628 47.916668 305.5 47.916668C308.81372 47.916668 311.5 50.60296 311.5 53.916668Z" fill-rule="nonzero"/><path fill="#edeef0" d="M320.42188 57.916668L320.42188 49.322918L321.57812 49.322918L326.09375 56.072918L326.09375 49.322918L327.1875 49.322918L327.1875 57.916668L326.01562 57.916668L321.5 51.166668L321.5 57.916668L320.42188 57.916668ZM333.54688 55.916668L334.64062 56.041668Q334.39062 56.994793 333.6875 57.526043Q332.98438 58.057293 331.90625 58.057293Q330.54688 58.057293 329.73438 57.213543Q328.9375 56.369793 328.9375 54.854168Q328.9375 53.291668 329.75 52.432293Q330.5625 51.557293 331.84375 51.557293Q333.09375 51.557293 333.875 52.401043Q334.67188 53.244793 334.67188 54.791668Q334.67188 54.885418 334.67188 55.072918L330.03125 55.072918Q330.09375 56.104168 330.60938 56.651043Q331.125 57.182293 331.90625 57.182293Q332.48438 57.182293 332.89062 56.885418Q333.3125 56.572918 333.54688 55.916668ZM330.09375 54.213543L333.5625 54.213543Q333.5 53.416668 333.17188 53.026043Q332.65625 52.416668 331.85938 52.416668Q331.125 52.416668 330.625 52.901043Q330.14062 53.385418 330.09375 54.213543ZM335.59375 57.916668L337.85938 54.682293L335.76562 51.697918L337.07812 51.697918L338.03125 53.151043Q338.29688 53.572918 338.46875 53.854168Q338.71875 53.463543 338.9375 53.166668L339.98438 51.697918L341.25 51.697918L339.09375 54.619793L341.40625 57.916668L340.125 57.916668L338.84375 55.979168L338.5 55.463543L336.85938 57.916668L335.59375 57.916668ZM343.59375 56.979168L343.75 57.901043Q343.29688 57.994793 342.95312 57.994793Q342.375 57.994793 342.0625 57.822918Q341.75 57.635418 341.60938 57.338543Q341.48438 57.041668 341.48438 56.088543L341.48438 52.510418L340.71875 52.510418L340.71875 51.697918L341.48438 51.697918L341.48438 50.151043L342.53125 49.526043L342.53125 51.697918L343.59375 51.697918L343.59375 52.510418L342.53125 52.510418L342.53125 56.151043Q342.53125 56.604168 342.57812 56.729168Q342.64062 56.854168 342.76562 56.932293Q342.89062 57.010418 343.125 57.010418Q343.3125 57.010418 343.59375 56.979168ZM344.59375 57.916668L344.59375 56.713543L345.79688 56.713543L345.79688 57.916668L344.59375 57.916668ZM347.28125 50.557293L347.28125 49.322918L348.34375 49.322918L348.34375 50.557293L347.28125 50.557293ZM345.95312 60.338543L346.14062 59.432293Q346.46875 59.510418 346.64062 59.510418Q346.96875 59.510418 347.125 59.291668Q347.28125 59.088543 347.28125 58.229168L347.28125 51.697918L348.34375 51.697918L348.34375 58.260418Q348.34375 59.401043 348.04688 59.854168Q347.65625 60.447918 346.78125 60.447918Q346.34375 60.447918 345.95312 60.338543ZM349.875 56.057293L350.90625 55.901043Q351.0 56.526043 351.39062 56.854168Q351.79688 57.182293 352.53125 57.182293Q353.25 57.182293 353.59375 56.901043Q353.95312 56.604168 353.95312 56.197918Q353.95312 55.838543 353.64062 55.635418Q353.42188 55.494793 352.5625 55.276043Q351.40625 54.979168 350.95312 54.776043Q350.51562 54.557293 350.28125 54.182293Q350.04688 53.807293 350.04688 53.338543Q350.04688 52.932293 350.23438 52.572918Q350.42188 52.213543 350.75 51.979168Q351.0 51.807293 351.42188 51.682293Q351.84375 51.557293 352.34375 51.557293Q353.0625 51.557293 353.60938 51.776043Q354.17188 51.979168 354.4375 52.338543Q354.70312 52.697918 354.79688 53.291668L353.76562 53.432293Q353.70312 52.963543 353.35938 52.697918Q353.03125 52.416668 352.40625 52.416668Q351.6875 52.416668 351.375 52.666668Q351.0625 52.901043 351.0625 53.229168Q351.0625 53.432293 351.1875 53.588543Q351.32812 53.760418 351.59375 53.869793Q351.75 53.932293 352.53125 54.135418Q353.65625 54.447918 354.09375 54.635418Q354.53125 54.822918 354.78125 55.182293Q355.03125 55.541668 355.03125 56.088543Q355.03125 56.619793 354.71875 57.088543Q354.42188 57.541668 353.84375 57.807293Q353.26562 58.057293 352.53125 58.057293Q351.3125 58.057293 350.67188 57.557293Q350.04688 57.041668 349.875 56.057293Z" fill-rule="nonzero"/><path fill="#edeef0" d="M19.628124 31.55L19.628124 21.534374L23.409374 21.534374Q24.409374 21.534374 24.940624 21.628124Q25.675 21.753124 26.175 22.096874Q26.675 22.440624 26.971874 23.065624Q27.284374 23.675 27.284374 24.425Q27.284374 25.70625 26.471874 26.596874Q25.659374 27.471874 23.534374 27.471874L20.95625 27.471874L20.95625 31.55L19.628124 31.55ZM20.95625 26.3L23.55 26.3Q24.83125 26.3 25.3625 25.815624Q25.909374 25.33125 25.909374 24.471874Q25.909374 23.83125 25.596874 23.39375Q25.284374 22.940624 24.753124 22.8Q24.425 22.70625 23.51875 22.70625L20.95625 22.70625L20.95625 26.3ZM33.20625 30.659374Q32.534374 31.2375 31.89375 31.4875Q31.26875 31.721874 30.534374 31.721874Q29.346874 31.721874 28.690624 31.14375Q28.05 30.55 28.05 29.628124Q28.05 29.096874 28.284374 28.659374Q28.534374 28.221874 28.925 27.95625Q29.33125 27.690624 29.815624 27.55Q30.175 27.45625 30.909374 27.3625Q32.409374 27.190624 33.1125 26.940624Q33.1125 26.690624 33.1125 26.628124Q33.1125 25.8625 32.76875 25.565624Q32.3 25.14375 31.3625 25.14375Q30.503124 25.14375 30.08125 25.45625Q29.675 25.753124 29.471874 26.51875L28.26875 26.3625Q28.425 25.58125 28.8 25.1125Q29.190624 24.64375 29.89375 24.39375Q30.6125 24.128124 31.55 24.128124Q32.471874 24.128124 33.05 24.346874Q33.628124 24.565624 33.89375 24.89375Q34.175 25.221874 34.284374 25.7375Q34.346874 26.05 34.346874 26.8625L34.346874 28.503124Q34.346874 30.221874 34.425 30.675Q34.503124 31.128124 34.7375 31.55L33.45625 31.55Q33.26875 31.159374 33.20625 30.659374ZM33.1125 27.909374Q32.440624 28.175 31.096874 28.378124Q30.346874 28.4875 30.01875 28.628124Q29.70625 28.753124 29.534374 29.01875Q29.3625 29.284374 29.3625 29.596874Q29.3625 30.096874 29.7375 30.425Q30.1125 30.753124 30.83125 30.753124Q31.55 30.753124 32.096874 30.440624Q32.64375 30.128124 32.909374 29.58125Q33.1125 29.175 33.1125 28.3625L33.1125 27.909374ZM36.253124 32.159374L37.440624 32.33125Q37.51875 32.878124 37.8625 33.14375Q38.315624 33.471874 39.1125 33.471874Q39.971874 33.471874 40.425 33.128124Q40.89375 32.8 41.065624 32.175Q41.159374 31.8 41.14375 30.596874Q40.346874 31.55 39.14375 31.55Q37.64375 31.55 36.815624 30.471874Q36.003124 29.39375 36.003124 27.878124Q36.003124 26.846874 36.378124 25.971874Q36.753124 25.08125 37.45625 24.6125Q38.175 24.128124 39.14375 24.128124Q40.425 24.128124 41.26875 25.159374L41.26875 24.284374L42.39375 24.284374L42.39375 30.565624Q42.39375 32.26875 42.05 32.971874Q41.70625 33.675 40.95625 34.08125Q40.20625 34.503124 39.1125 34.503124Q37.815624 34.503124 37.01875 33.909374Q36.221874 33.33125 36.253124 32.159374ZM37.26875 27.784374Q37.26875 29.221874 37.83125 29.878124Q38.39375 30.534374 39.253124 30.534374Q40.096874 30.534374 40.675 29.878124Q41.253124 29.221874 41.253124 27.83125Q41.253124 26.503124 40.659374 25.83125Q40.065624 25.14375 39.2375 25.14375Q38.409374 25.14375 37.83125 25.815624Q37.26875 26.471874 37.26875 27.784374ZM49.440624 29.20625L50.721874 29.3625Q50.409374 30.4875 49.596874 31.1125Q48.784374 31.721874 47.51875 31.721874Q45.925 31.721874 44.9875 30.7375Q44.065624 29.753124 44.065624 27.9875Q44.065624 26.14375 45.003124 25.14375Q45.95625 24.128124 47.45625 24.128124Q48.909374 24.128124 49.83125 25.128124Q50.753124 26.1125 50.753124 27.909374Q50.753124 28.01875 50.753124 28.2375L45.33125 28.2375Q45.409374 29.425 46.003124 30.065624Q46.6125 30.70625 47.534374 30.70625Q48.20625 30.70625 48.675 30.346874Q49.159374 29.9875 49.440624 29.20625ZM45.409374 27.221874L49.45625 27.221874Q49.378124 26.3 48.9875 25.846874Q48.409374 25.14375 47.471874 25.14375Q46.6125 25.14375 46.034374 25.70625Q45.471874 26.26875 45.409374 27.221874ZM56.440624 31.55L56.440624 21.534374L57.675 21.534374L57.675 31.55L56.440624 31.55ZM59.01875 27.925Q59.01875 25.909374 60.14375 24.925Q61.065624 24.128124 62.425 24.128124Q63.909374 24.128124 64.8625 25.1125Q65.81563 26.08125 65.81563 27.815624Q65.81563 29.221874 65.39375 30.034374Q64.97188 30.83125 64.15938 31.284374Q63.3625 31.721874 62.425 31.721874Q60.89375 31.721874 59.95625 30.7375Q59.01875 29.753124 59.01875 27.925ZM60.284374 27.925Q60.284374 29.315624 60.89375 30.01875Q61.503124 30.70625 62.425 30.70625Q63.33125 30.70625 63.940624 30.003124Q64.55 29.3 64.55 27.878124Q64.55 26.534374 63.940624 25.846874Q63.33125 25.14375 62.425 25.14375Q61.503124 25.14375 60.89375 25.83125Q60.284374 26.51875 60.284374 27.925ZM72.20625 30.659374Q71.53438 31.2375 70.89375 31.4875Q70.26875 31.721874 69.53438 31.721874Q68.34688 31.721874 67.69063 31.14375Q67.05 30.55 67.05 29.628124Q67.05 29.096874 67.28438 28.659374Q67.53438 28.221874 67.925 27.95625Q68.33125 27.690624 68.81563 27.55Q69.175 27.45625 69.90938 27.3625Q71.40938 27.190624 72.1125 26.940624Q72.1125 26.690624 72.1125 26.628124Q72.1125 25.8625 71.76875 25.565624Q71.3 25.14375 70.3625 25.14375Q69.50313 25.14375 69.08125 25.45625Q68.675 25.753124 68.47188 26.51875L67.26875 26.3625Q67.425 25.58125 67.8 25.1125Q68.19063 24.64375 68.89375 24.39375Q69.6125 24.128124 70.55 24.128124Q71.47188 24.128124 72.05 24.346874Q72.62813 24.565624 72.89375 24.89375Q73.175 25.221874 73.28438 25.7375Q73.34688 26.05 73.34688 26.8625L73.34688 28.503124Q73.34688 30.221874 73.425 30.675Q73.50313 31.128124 73.7375 31.55L72.45625 31.55Q72.26875 31.159374 72.20625 30.659374ZM72.1125 27.909374Q71.44063 28.175 70.09688 28.378124Q69.34688 28.4875 69.01875 28.628124Q68.70625 28.753124 68.53438 29.01875Q68.3625 29.284374 68.3625 29.596874Q68.3625 30.096874 68.7375 30.425Q69.1125 30.753124 69.83125 30.753124Q70.55 30.753124 71.09688 30.440624Q71.64375 30.128124 71.90938 29.58125Q72.1125 29.175 72.1125 28.3625L72.1125 27.909374ZM80.19063 31.55L80.19063 30.628124Q79.4875 31.721874 78.15938 31.721874Q77.28438 31.721874 76.55 31.2375Q75.83125 30.753124 75.425 29.89375Q75.03438 29.034374 75.03438 27.925Q75.03438 26.846874 75.39375 25.95625Q75.75313 25.065624 76.47188 24.596874Q77.20625 24.128124 78.09688 24.128124Q78.75313 24.128124 79.26875 24.409374Q79.78438 24.675 80.09688 25.128124L80.09688 21.534374L81.33125 21.534374L81.33125 31.55L80.19063 31.55ZM76.3 27.925Q76.3 29.315624 76.87813 30.01875Q77.47188 30.70625 78.26875 30.70625Q79.08125 30.70625 79.64375 30.05Q80.20625 29.378124 80.20625 28.034374Q80.20625 26.534374 79.62813 25.846874Q79.05 25.14375 78.22188 25.14375Q77.39375 25.14375 76.84688 25.815624Q76.3 26.4875 76.3 27.925ZM89.83125 34.503124Q88.8 33.20625 88.09688 31.4875Q87.39375 29.76875 87.39375 27.925Q87.39375 26.3 87.925 24.8Q88.53438 23.065624 89.83125 21.3625L90.70625 21.3625Q89.87813 22.784374 89.6125 23.39375Q89.19063 24.33125 88.95625 25.3625Q88.65938 26.628124 88.65938 27.925Q88.65938 31.221874 90.70625 34.503124L89.83125 34.503124ZM92.47188 31.55L92.47188 24.284374L93.58125 24.284374L93.58125 25.315624Q94.37813 24.128124 95.89375 24.128124Q96.55 24.128124 97.09688 24.3625Q97.64375 24.596874 97.90938 24.9875Q98.19063 25.3625 98.3 25.89375Q98.37813 26.2375 98.37813 27.08125L98.37813 31.55L97.14375 31.55L97.14375 27.128124Q97.14375 26.378124 97.00313 26.01875Q96.8625 25.64375 96.4875 25.425Q96.12813 25.190624 95.62813 25.190624Q94.84688 25.190624 94.26875 25.690624Q93.70625 26.190624 93.70625 27.58125L93.70625 31.55L92.47188 31.55ZM100.01875 27.925Q100.01875 25.909374 101.14375 24.925Q102.06563 24.128124 103.425 24.128124Q104.90938 24.128124 105.8625 25.1125Q106.81563 26.08125 106.81563 27.815624Q106.81563 29.221874 106.39375 30.034374Q105.97188 30.83125 105.15938 31.284374Q104.3625 31.721874 103.425 31.721874Q101.89375 31.721874 100.95625 30.7375Q100.01875 29.753124 100.01875 27.925ZM101.28438 27.925Q101.28438 29.315624 101.89375 30.01875Q102.50313 30.70625 103.425 30.70625Q104.33125 30.70625 104.94063 30.003124Q105.55 29.3 105.55 27.878124Q105.55 26.534374 104.94063 25.846874Q104.33125 25.14375 103.425 25.14375Q102.50313 25.14375 101.89375 25.83125Q101.28438 26.51875 101.28438 27.925ZM117.20625 28.89375L118.425 29.05Q118.22188 30.3 117.39375 31.01875Q116.58125 31.721874 115.39375 31.721874Q113.90938 31.721874 113.00313 30.753124Q112.09688 29.76875 112.09688 27.940624Q112.09688 26.76875 112.4875 25.89375Q112.87813 25.003124 113.675 24.565624Q114.47188 24.128124 115.40938 24.128124Q116.58125 24.128124 117.33125 24.721874Q118.09688 25.315624 118.3 26.425L117.1125 26.6125Q116.94063 25.878124 116.50313 25.51875Q116.06563 25.14375 115.45625 25.14375Q114.51875 25.14375 113.94063 25.815624Q113.3625 26.471874 113.3625 27.909374Q113.3625 29.378124 113.925 30.05Q114.4875 30.70625 115.37813 30.70625Q116.1125 30.70625 116.59688 30.26875Q117.08125 29.815624 117.20625 28.89375ZM124.20625 30.659374Q123.53438 31.2375 122.89375 31.4875Q122.26875 31.721874 121.53438 31.721874Q120.34688 31.721874 119.69063 31.14375Q119.05 30.55 119.05 29.628124Q119.05 29.096874 119.28438 28.659374Q119.53438 28.221874 119.925 27.95625Q120.33125 27.690624 120.81563 27.55Q121.175 27.45625 121.90938 27.3625Q123.40938 27.190624 124.1125 26.940624Q124.1125 26.690624 124.1125 26.628124Q124.1125 25.8625 123.76875 25.565624Q123.3 25.14375 122.3625 25.14375Q121.50313 25.14375 121.08125 25.45625Q120.675 25.753124 120.47188 26.51875L119.26875 26.3625Q119.425 25.58125 119.8 25.1125Q120.19063 24.64375 120.89375 24.39375Q121.6125 24.128124 122.55 24.128124Q123.47188 24.128124 124.05 24.346874Q124.62813 24.565624 124.89375 24.89375Q125.175 25.221874 125.28438 25.7375Q125.34688 26.05 125.34688 26.8625L125.34688 28.503124Q125.34688 30.221874 125.425 30.675Q125.50313 31.128124 125.7375 31.55L124.45625 31.55Q124.26875 31.159374 124.20625 30.659374ZM124.1125 27.909374Q123.44063 28.175 122.09688 28.378124Q121.34688 28.4875 121.01875 28.628124Q120.70625 28.753124 120.53438 29.01875Q120.3625 29.284374 120.3625 29.596874Q120.3625 30.096874 120.7375 30.425Q121.1125 30.753124 121.83125 30.753124Q122.55 30.753124 123.09688 30.440624Q123.64375 30.128124 123.90938 29.58125Q124.1125 29.175 124.1125 28.3625L124.1125 27.909374ZM132.20625 28.89375L133.425 29.05Q133.22188 30.3 132.39375 31.01875Q131.58125 31.721874 130.39375 31.721874Q128.90938 31.721874 128.00313 30.753124Q127.09688 29.76875 127.09688 27.940624Q127.09688 26.76875 127.4875 25.89375Q127.87813 25.003124 128.675 24.565624Q129.47188 24.128124 130.40938 24.128124Q131.58125 24.128124 132.33125 24.721874Q133.09688 25.315624 133.3 26.425L132.1125 26.6125Q131.94063 25.878124 131.50313 25.51875Q131.06563 25.14375 130.45625 25.14375Q129.51875 25.14375 128.94063 25.815624Q128.3625 26.471874 128.3625 27.909374Q128.3625 29.378124 128.925 30.05Q129.4875 30.70625 130.37813 30.70625Q131.1125 30.70625 131.59688 30.26875Q132.08125 29.815624 132.20625 28.89375ZM134.47188 31.55L134.47188 21.534374L135.70625 21.534374L135.70625 25.128124Q136.56563 24.128124 137.87813 24.128124Q138.69063 24.128124 139.28438 24.45625Q139.87813 24.76875 140.12813 25.33125Q140.39375 25.878124 140.39375 26.95625L140.39375 31.55L139.15938 31.55L139.15938 26.95625Q139.15938 26.01875 138.75313 25.6125Q138.3625 25.190624 137.62813 25.190624Q137.08125 25.190624 136.59688 25.471874Q136.1125 25.753124 135.90938 26.2375Q135.70625 26.721874 135.70625 27.58125L135.70625 31.55L134.47188 31.55ZM147.44063 29.20625L148.72188 29.3625Q148.40938 30.4875 147.59688 31.1125Q146.78438 31.721874 145.51875 31.721874Q143.925 31.721874 142.9875 30.7375Q142.06563 29.753124 142.06563 27.9875Q142.06563 26.14375 143.00313 25.14375Q143.95625 24.128124 145.45625 24.128124Q146.90938 24.128124 147.83125 25.128124Q148.75313 26.1125 148.75313 27.909374Q148.75313 28.01875 148.75313 28.2375L143.33125 28.2375Q143.40938 29.425 144.00313 30.065624Q144.6125 30.70625 145.53438 30.70625Q146.20625 30.70625 146.675 30.346874Q147.15938 29.9875 147.44063 29.20625ZM143.40938 27.221874L147.45625 27.221874Q147.37813 26.3 146.9875 25.846874Q146.40938 25.14375 145.47188 25.14375Q144.6125 25.14375 144.03438 25.70625Q143.47188 26.26875 143.40938 27.221874ZM151.28438 34.503124L150.39375 34.503124Q152.44063 31.221874 152.44063 27.925Q152.44063 26.64375 152.14375 25.378124Q151.90938 24.346874 151.50313 23.409374Q151.2375 22.8 150.39375 21.3625L151.28438 21.3625Q152.56563 23.065624 153.175 24.8Q153.70625 26.3 153.70625 27.925Q153.70625 29.76875 152.9875 31.4875Q152.28438 33.20625 151.28438 34.503124Z" fill-rule="nonzero"/></svg>